<svg xmlns="http://www.w3.org/2000/svg" xmlns:xlink="http://www.w3.org/1999/xlink" width="500" zoomAndPan="magnify" viewBox="0 0 375 374.999991" height="500" preserveAspectRatio="xMidYMid meet" version="1.2"><defs><clipPath id="7b09b842df"><path d="M 0 54.027344 L 375 54.027344 L 375 270.777344 L 0 270.777344 Z M 0 54.027344 "/></clipPath><clipPath id="205d8d94d3"><path d="M 107 54.027344 L 251 54.027344 L 251 270.777344 L 107 270.777344 Z M 107 54.027344 "/></clipPath></defs><g id="10756d66df"><g clip-rule="nonzero" clip-path="url(#7b09b842df)"><path style=" stroke:none;fill-rule:nonzero;fill:#0cc0df;fill-opacity:1;" d="M 199.917969 219.558594 C 201.027344 217.78125 202.082031 215.96875 203.074219 214.128906 C 203.746094 212.902344 204.398438 211.660156 205.015625 210.398438 C 206.261719 207.882812 207.414062 205.308594 208.460938 202.6875 C 208.722656 202.035156 208.984375 201.371094 209.234375 200.710938 C 209.46875 200.09375 209.699219 199.46875 209.921875 198.835938 C 210.003906 198.585938 210.09375 198.34375 210.183594 198.09375 C 210.34375 197.636719 210.5 197.171875 210.65625 196.707031 C 210.792969 196.289062 210.925781 195.875 211.0625 195.460938 C 211.148438 195.199219 211.230469 194.941406 211.304688 194.679688 C 211.429688 194.289062 211.550781 193.898438 211.664062 193.507812 C 211.816406 193.019531 211.957031 192.523438 212.09375 192.023438 C 212.234375 191.539062 212.371094 191.050781 212.5 190.5625 C 212.664062 189.953125 212.824219 189.347656 212.976562 188.734375 C 213.082031 188.300781 213.191406 187.867188 213.292969 187.4375 C 213.363281 187.136719 213.429688 186.835938 213.496094 186.535156 C 213.59375 186.132812 213.679688 185.734375 213.761719 185.335938 C 213.84375 184.980469 213.914062 184.632812 213.988281 184.277344 C 214.058594 183.945312 214.125 183.605469 214.191406 183.269531 C 214.398438 182.195312 214.597656 181.101562 214.777344 180.003906 C 214.890625 179.292969 215.003906 178.578125 215.105469 177.851562 C 215.21875 177.046875 215.320312 176.25 215.417969 175.445312 C 215.460938 175.078125 215.511719 174.710938 215.546875 174.339844 C 215.660156 173.292969 215.761719 172.246094 215.847656 171.1875 C 215.871094 170.871094 215.898438 170.558594 215.921875 170.242188 C 215.949219 169.855469 215.976562 169.472656 215.996094 169.085938 C 216.015625 168.734375 216.039062 168.378906 216.058594 168.027344 C 216.078125 167.53125 216.105469 167.035156 216.117188 166.539062 C 216.128906 166.285156 216.140625 166.023438 216.148438 165.761719 C 216.183594 164.648438 216.199219 163.53125 216.199219 162.40625 C 216.199219 156.597656 215.738281 150.894531 214.859375 145.328125 C 214.855469 145.265625 214.84375 145.203125 214.828125 145.140625 C 214.730469 144.523438 214.625 143.902344 214.515625 143.28125 L 214.503906 143.214844 C 214.386719 142.5625 214.261719 141.898438 214.136719 141.246094 C 213.742188 139.28125 213.300781 137.335938 212.804688 135.414062 L 212.804688 135.40625 C 208.175781 117.445312 199.050781 101.261719 186.703125 88.148438 L 186.761719 88.148438 C 167 67.136719 138.941406 54.019531 107.820312 54.019531 L 0.0117188 54.019531 L 0.0117188 88.148438 L 107.820312 88.148438 C 148.761719 88.148438 182.070312 121.460938 182.070312 162.398438 C 182.070312 182.226562 174.351562 200.878906 160.324219 214.902344 C 146.304688 228.929688 127.648438 236.648438 107.820312 236.648438 L 0.0117188 236.648438 L 0.0117188 270.785156 L 107.820312 270.785156 C 139.148438 270.785156 167.375 257.492188 187.15625 236.234375 C 187.757812 235.59375 188.339844 234.957031 188.910156 234.308594 C 189.484375 233.660156 190.050781 233.007812 190.617188 232.34375 C 190.972656 231.914062 191.335938 231.488281 191.683594 231.054688 C 191.824219 230.882812 191.964844 230.71875 192.101562 230.550781 C 192.398438 230.1875 192.6875 229.820312 192.976562 229.449219 L 193.015625 229.394531 C 193.1875 229.191406 193.351562 228.980469 193.507812 228.773438 C 193.617188 228.625 193.730469 228.480469 193.84375 228.335938 C 193.957031 228.1875 194.066406 228.042969 194.183594 227.894531 C 194.371094 227.640625 194.5625 227.390625 194.753906 227.128906 C 194.914062 226.921875 195.066406 226.707031 195.226562 226.492188 C 195.546875 226.054688 195.863281 225.617188 196.175781 225.175781 C 196.265625 225.054688 196.355469 224.929688 196.441406 224.796875 C 196.574219 224.621094 196.699219 224.441406 196.824219 224.265625 C 197.035156 223.953125 197.25 223.640625 197.460938 223.332031 C 197.523438 223.25 197.582031 223.160156 197.632812 223.082031 C 198.414062 221.925781 199.175781 220.753906 199.914062 219.570312 Z M 354.753906 162.40625 C 355.210938 161.96875 355.679688 161.542969 356.128906 161.089844 C 367.972656 149.242188 374.503906 133.496094 374.503906 116.742188 C 374.503906 82.160156 346.363281 54.019531 311.78125 54.019531 L 199.425781 54.019531 C 211.171875 63.675781 221.320312 75.207031 229.40625 88.148438 L 311.78125 88.148438 C 327.539062 88.148438 340.367188 100.980469 340.367188 116.742188 C 340.367188 124.375 337.390625 131.554688 331.996094 136.964844 C 326.597656 142.363281 319.414062 145.328125 311.78125 145.328125 L 249.621094 145.328125 C 250.300781 150.929688 250.652344 156.625 250.652344 162.40625 C 250.652344 168.179688 250.300781 173.875 249.621094 179.464844 L 311.78125 179.464844 C 327.539062 179.464844 340.367188 192.289062 340.367188 208.054688 C 340.367188 215.6875 337.390625 222.878906 331.996094 228.277344 C 326.59375 233.675781 319.410156 236.648438 311.78125 236.648438 L 229.40625 236.648438 C 221.320312 249.597656 211.171875 261.125 199.425781 270.785156 L 311.78125 270.785156 C 328.53125 270.785156 344.277344 264.257812 356.140625 252.40625 C 367.980469 240.554688 374.503906 224.796875 374.503906 208.054688 C 374.503906 190.078125 366.902344 173.855469 354.753906 162.40625 "/></g><g clip-rule="nonzero" clip-path="url(#205d8d94d3)"><path style=" stroke:none;fill-rule:nonzero;fill:#c6f0f1;fill-opacity:1;" d="M 186.777344 236.648438 C 186.910156 236.511719 187.039062 236.375 187.15625 236.234375 C 167.375 257.492188 139.148438 270.785156 107.820312 270.785156 L 199.425781 270.785156 C 211.171875 261.125 221.320312 249.597656 229.40625 236.648438 Z M 249.621094 145.328125 L 214.859375 145.328125 C 215.738281 150.894531 216.199219 156.597656 216.199219 162.40625 C 216.199219 168.132812 215.75 173.761719 214.890625 179.246094 C 214.980469 179.3125 215.070312 179.382812 215.148438 179.464844 L 249.621094 179.464844 C 250.300781 173.875 250.652344 168.179688 250.652344 162.40625 C 250.652344 156.625 250.300781 150.929688 249.621094 145.328125 Z M 229.40625 88.148438 L 186.761719 88.148438 C 167 67.136719 138.941406 54.019531 107.820312 54.019531 L 199.425781 54.019531 C 211.171875 63.675781 221.320312 75.207031 229.40625 88.148438 "/></g><g style="fill:#000000;fill-opacity:1;"><g transform="translate(5.391601, 305.457826)"><path style="stroke:none" d="M 7.953125 0 L 1.390625 -29.796875 L 4.6875 -29.796875 L 10.78125 -1.6875 L 11.796875 -1.6875 L 18.046875 -29.796875 L 24.8125 -29.796875 L 31.015625 -1.6875 L 32.03125 -1.6875 L 38.125 -29.796875 L 41.421875 -29.796875 L 34.875 0 L 28.1875 0 L 21.890625 -28.109375 L 20.921875 -28.109375 L 14.625 0 Z M 7.953125 0 "/></g></g><g style="fill:#000000;fill-opacity:1;"><g transform="translate(48.201997, 305.457826)"><path style="stroke:none" d="M 21.5625 0 L 3.078125 0 L 3.078125 -29.796875 L 21.5625 -29.796875 L 21.5625 -26.84375 L 6.546875 -26.84375 L 6.546875 -16.40625 L 19.4375 -16.40625 L 19.4375 -13.4375 L 6.546875 -13.4375 L 6.546875 -2.953125 L 21.5625 -2.953125 Z M 21.5625 0 "/></g></g><g style="fill:#000000;fill-opacity:1;"><g transform="translate(71.994945, 305.457826)"><path style="stroke:none" d="M 12.890625 0 L 3.078125 0 L 3.078125 -29.796875 L 10.984375 -29.796875 C 13.410156 -29.796875 15.472656 -29.59375 17.171875 -29.1875 C 18.878906 -28.78125 20.179688 -28.050781 21.078125 -27 C 21.984375 -25.957031 22.4375 -24.453125 22.4375 -22.484375 C 22.4375 -21.046875 22.15625 -19.875 21.59375 -18.96875 C 21.03125 -18.070312 20.296875 -17.40625 19.390625 -16.96875 C 18.492188 -16.53125 17.523438 -16.269531 16.484375 -16.1875 L 16.484375 -15.171875 C 18.003906 -15.140625 19.382812 -14.890625 20.625 -14.421875 C 21.863281 -13.960938 22.84375 -13.203125 23.5625 -12.140625 C 24.28125 -11.085938 24.640625 -9.675781 24.640625 -7.90625 C 24.640625 -5.90625 24.160156 -4.328125 23.203125 -3.171875 C 22.242188 -2.015625 20.890625 -1.195312 19.140625 -0.71875 C 17.398438 -0.238281 15.316406 0 12.890625 0 Z M 6.546875 -26.84375 L 6.546875 -16.984375 L 11.109375 -16.984375 C 12.742188 -16.984375 14.144531 -17.101562 15.3125 -17.34375 C 16.488281 -17.582031 17.394531 -18.054688 18.03125 -18.765625 C 18.664062 -19.472656 18.984375 -20.53125 18.984375 -21.9375 C 18.984375 -23.488281 18.664062 -24.601562 18.03125 -25.28125 C 17.394531 -25.957031 16.488281 -26.382812 15.3125 -26.5625 C 14.144531 -26.75 12.742188 -26.84375 11.109375 -26.84375 Z M 6.546875 -14.03125 L 6.546875 -2.953125 L 13.015625 -2.953125 C 14.703125 -2.953125 16.160156 -3.085938 17.390625 -3.359375 C 18.617188 -3.628906 19.554688 -4.164062 20.203125 -4.96875 C 20.847656 -5.769531 21.171875 -6.945312 21.171875 -8.5 C 21.171875 -10.664062 20.445312 -12.128906 19 -12.890625 C 17.550781 -13.648438 15.554688 -14.03125 13.015625 -14.03125 Z M 6.546875 -14.03125 "/></g></g><g style="fill:#000000;fill-opacity:1;"><g transform="translate(99.295558, 305.457826)"><path style="stroke:none" d=""/></g></g><g style="fill:#000000;fill-opacity:1;"><g transform="translate(113.326219, 305.457826)"><path style="stroke:none" d="M 26.75 -7.515625 C 26.75 -6.054688 26.40625 -4.71875 25.71875 -3.5 C 25.03125 -2.289062 23.851562 -1.332031 22.1875 -0.625 C 20.53125 0.0703125 18.234375 0.421875 15.296875 0.421875 C 11.828125 0.421875 9.113281 -0.0546875 7.15625 -1.015625 C 5.207031 -1.972656 3.828125 -3.320312 3.015625 -5.0625 C 2.210938 -6.8125 1.8125 -8.84375 1.8125 -11.15625 L 5.28125 -11.15625 C 5.28125 -8.820312 5.679688 -7.023438 6.484375 -5.765625 C 7.285156 -4.515625 8.429688 -3.660156 9.921875 -3.203125 C 11.421875 -2.753906 13.210938 -2.53125 15.296875 -2.53125 C 17.835938 -2.53125 19.800781 -2.882812 21.1875 -3.59375 C 22.582031 -4.300781 23.28125 -5.554688 23.28125 -7.359375 C 23.28125 -8.484375 22.984375 -9.410156 22.390625 -10.140625 C 21.804688 -10.878906 21.035156 -11.488281 20.078125 -11.96875 C 19.117188 -12.445312 18.046875 -12.851562 16.859375 -13.1875 C 15.679688 -13.519531 14.5 -13.859375 13.3125 -14.203125 C 11.363281 -14.796875 9.625 -15.421875 8.09375 -16.078125 C 6.5625 -16.742188 5.359375 -17.601562 4.484375 -18.65625 C 3.609375 -19.71875 3.171875 -21.117188 3.171875 -22.859375 C 3.171875 -25.148438 4.015625 -26.945312 5.703125 -28.25 C 7.390625 -29.5625 10.066406 -30.21875 13.734375 -30.21875 C 15.929688 -30.21875 17.785156 -29.914062 19.296875 -29.3125 C 20.804688 -28.707031 22.015625 -27.910156 22.921875 -26.921875 C 23.835938 -25.929688 24.5 -24.832031 24.90625 -23.625 C 25.320312 -22.414062 25.53125 -21.203125 25.53125 -19.984375 L 22.0625 -19.984375 C 22.0625 -21.679688 21.6875 -23.0625 20.9375 -24.125 C 20.195312 -25.195312 19.191406 -25.988281 17.921875 -26.5 C 16.648438 -27.007812 15.253906 -27.265625 13.734375 -27.265625 C 12.378906 -27.265625 11.164062 -27.132812 10.09375 -26.875 C 9.03125 -26.625 8.1875 -26.179688 7.5625 -25.546875 C 6.945312 -24.910156 6.640625 -24.046875 6.640625 -22.953125 C 6.640625 -21.910156 6.925781 -21.054688 7.5 -20.390625 C 8.082031 -19.734375 8.925781 -19.15625 10.03125 -18.65625 C 11.144531 -18.164062 12.519531 -17.664062 14.15625 -17.15625 C 15.625 -16.707031 17.097656 -16.234375 18.578125 -15.734375 C 20.054688 -15.242188 21.414062 -14.660156 22.65625 -13.984375 C 23.894531 -13.304688 24.882812 -12.445312 25.625 -11.40625 C 26.375 -10.363281 26.75 -9.066406 26.75 -7.515625 Z M 26.75 -7.515625 "/></g></g><g style="fill:#000000;fill-opacity:1;"><g transform="translate(141.894665, 305.457826)"><path style="stroke:none" d="M 2.65625 -14.921875 C 2.65625 -17.816406 3.203125 -20.410156 4.296875 -22.703125 C 5.398438 -25.003906 6.992188 -26.832031 9.078125 -28.1875 C 11.171875 -29.539062 13.679688 -30.21875 16.609375 -30.21875 C 19.515625 -30.21875 22 -29.539062 24.0625 -28.1875 C 26.132812 -26.832031 27.71875 -25.003906 28.8125 -22.703125 C 29.914062 -20.410156 30.46875 -17.816406 30.46875 -14.921875 C 30.46875 -12.015625 29.914062 -9.40625 28.8125 -7.09375 C 27.71875 -4.789062 26.132812 -2.960938 24.0625 -1.609375 C 22 -0.253906 19.515625 0.421875 16.609375 0.421875 C 13.679688 0.421875 11.171875 -0.253906 9.078125 -1.609375 C 6.992188 -2.960938 5.398438 -4.789062 4.296875 -7.09375 C 3.203125 -9.40625 2.65625 -12.015625 2.65625 -14.921875 Z M 6.125 -14.921875 C 6.125 -12.554688 6.503906 -10.4375 7.265625 -8.5625 C 8.023438 -6.6875 9.1875 -5.210938 10.75 -4.140625 C 12.320312 -3.066406 14.273438 -2.53125 16.609375 -2.53125 C 18.953125 -2.53125 20.890625 -3.066406 22.421875 -4.140625 C 23.953125 -5.210938 25.097656 -6.6875 25.859375 -8.5625 C 26.617188 -10.4375 27 -12.554688 27 -14.921875 C 27 -17.285156 26.617188 -19.394531 25.859375 -21.25 C 25.097656 -23.113281 23.953125 -24.582031 22.421875 -25.65625 C 20.890625 -26.726562 18.953125 -27.265625 16.609375 -27.265625 C 14.273438 -27.265625 12.320312 -26.726562 10.75 -25.65625 C 9.1875 -24.582031 8.023438 -23.113281 7.265625 -21.25 C 6.503906 -19.394531 6.125 -17.285156 6.125 -14.921875 Z M 6.125 -14.921875 "/></g></g><g style="fill:#000000;fill-opacity:1;"><g transform="translate(175.027293, 305.457826)"><path style="stroke:none" d="M 21.5625 0 L 5.65625 0.421875 C 4.84375 0.453125 4.207031 0.234375 3.75 -0.234375 C 3.300781 -0.703125 3.078125 -1.328125 3.078125 -2.109375 L 3.078125 -29.796875 L 6.546875 -29.796875 L 6.546875 -2.53125 L 21.5625 -2.953125 Z M 21.5625 0 "/></g></g><g style="fill:#000000;fill-opacity:1;"><g transform="translate(197.975014, 305.457826)"><path style="stroke:none" d="M 2.234375 -11.078125 L 2.234375 -29.796875 L 5.703125 -29.796875 L 5.703125 -11.625 C 5.703125 -8.601562 6.316406 -6.332031 7.546875 -4.8125 C 8.773438 -3.289062 10.9375 -2.53125 14.03125 -2.53125 C 17.132812 -2.53125 19.304688 -3.289062 20.546875 -4.8125 C 21.785156 -6.332031 22.40625 -8.601562 22.40625 -11.625 L 22.40625 -29.796875 L 25.859375 -29.796875 L 25.859375 -11.078125 C 25.859375 -7.359375 24.90625 -4.507812 23 -2.53125 C 21.101562 -0.5625 18.113281 0.421875 14.03125 0.421875 C 9.976562 0.421875 7 -0.5625 5.09375 -2.53125 C 3.1875 -4.507812 2.234375 -7.359375 2.234375 -11.078125 Z M 2.234375 -11.078125 "/></g></g><g style="fill:#000000;fill-opacity:1;"><g transform="translate(226.078575, 305.457826)"><path style="stroke:none" d="M 1.8125 -29.796875 L 25.953125 -29.796875 L 25.953125 -26.84375 L 15.640625 -26.84375 L 15.640625 0 L 12.21875 0 L 12.21875 -26.84375 L 1.8125 -26.84375 Z M 1.8125 -29.796875 "/></g></g><g style="fill:#000000;fill-opacity:1;"><g transform="translate(253.886326, 305.457826)"><path style="stroke:none" d="M 19.4375 -29.796875 L 19.4375 -26.84375 L 12.8125 -26.84375 L 12.8125 -2.953125 L 19.4375 -2.953125 L 19.4375 0 L 2.65625 0 L 2.65625 -2.953125 L 9.34375 -2.953125 L 9.34375 -26.84375 L 2.65625 -26.84375 L 2.65625 -29.796875 Z M 19.4375 -29.796875 "/></g></g><g style="fill:#000000;fill-opacity:1;"><g transform="translate(275.988821, 305.457826)"><path style="stroke:none" d="M 2.65625 -14.921875 C 2.65625 -17.816406 3.203125 -20.410156 4.296875 -22.703125 C 5.398438 -25.003906 6.992188 -26.832031 9.078125 -28.1875 C 11.171875 -29.539062 13.679688 -30.21875 16.609375 -30.21875 C 19.515625 -30.21875 22 -29.539062 24.0625 -28.1875 C 26.132812 -26.832031 27.71875 -25.003906 28.8125 -22.703125 C 29.914062 -20.410156 30.46875 -17.816406 30.46875 -14.921875 C 30.46875 -12.015625 29.914062 -9.40625 28.8125 -7.09375 C 27.71875 -4.789062 26.132812 -2.960938 24.0625 -1.609375 C 22 -0.253906 19.515625 0.421875 16.609375 0.421875 C 13.679688 0.421875 11.171875 -0.253906 9.078125 -1.609375 C 6.992188 -2.960938 5.398438 -4.789062 4.296875 -7.09375 C 3.203125 -9.40625 2.65625 -12.015625 2.65625 -14.921875 Z M 6.125 -14.921875 C 6.125 -12.554688 6.503906 -10.4375 7.265625 -8.5625 C 8.023438 -6.6875 9.1875 -5.210938 10.75 -4.140625 C 12.320312 -3.066406 14.273438 -2.53125 16.609375 -2.53125 C 18.953125 -2.53125 20.890625 -3.066406 22.421875 -4.140625 C 23.953125 -5.210938 25.097656 -6.6875 25.859375 -8.5625 C 26.617188 -10.4375 27 -12.554688 27 -14.921875 C 27 -17.285156 26.617188 -19.394531 25.859375 -21.25 C 25.097656 -23.113281 23.953125 -24.582031 22.421875 -25.65625 C 20.890625 -26.726562 18.953125 -27.265625 16.609375 -27.265625 C 14.273438 -27.265625 12.320312 -26.726562 10.75 -25.65625 C 9.1875 -24.582031 8.023438 -23.113281 7.265625 -21.25 C 6.503906 -19.394531 6.125 -17.285156 6.125 -14.921875 Z M 6.125 -14.921875 "/></g></g><g style="fill:#000000;fill-opacity:1;"><g transform="translate(309.121475, 305.457826)"><path style="stroke:none" d="M 6.546875 0 L 3.078125 0 L 3.078125 -29.796875 L 10.0625 -29.796875 L 24.6875 -1.6875 L 25.90625 -1.6875 L 25.359375 -3.46875 L 25.359375 -29.796875 L 28.78125 -29.796875 L 28.78125 0 L 21.8125 0 L 7.234375 -28.109375 L 6 -28.109375 L 6.546875 -26.328125 Z M 6.546875 0 "/></g></g><g style="fill:#000000;fill-opacity:1;"><g transform="translate(341.02851, 305.457826)"><path style="stroke:none" d="M 26.75 -7.515625 C 26.75 -6.054688 26.40625 -4.71875 25.71875 -3.5 C 25.03125 -2.289062 23.851562 -1.332031 22.1875 -0.625 C 20.53125 0.0703125 18.234375 0.421875 15.296875 0.421875 C 11.828125 0.421875 9.113281 -0.0546875 7.15625 -1.015625 C 5.207031 -1.972656 3.828125 -3.320312 3.015625 -5.0625 C 2.210938 -6.8125 1.8125 -8.84375 1.8125 -11.15625 L 5.28125 -11.15625 C 5.28125 -8.820312 5.679688 -7.023438 6.484375 -5.765625 C 7.285156 -4.515625 8.429688 -3.660156 9.921875 -3.203125 C 11.421875 -2.753906 13.210938 -2.53125 15.296875 -2.53125 C 17.835938 -2.53125 19.800781 -2.882812 21.1875 -3.59375 C 22.582031 -4.300781 23.28125 -5.554688 23.28125 -7.359375 C 23.28125 -8.484375 22.984375 -9.410156 22.390625 -10.140625 C 21.804688 -10.878906 21.035156 -11.488281 20.078125 -11.96875 C 19.117188 -12.445312 18.046875 -12.851562 16.859375 -13.1875 C 15.679688 -13.519531 14.5 -13.859375 13.3125 -14.203125 C 11.363281 -14.796875 9.625 -15.421875 8.09375 -16.078125 C 6.5625 -16.742188 5.359375 -17.601562 4.484375 -18.65625 C 3.609375 -19.71875 3.171875 -21.117188 3.171875 -22.859375 C 3.171875 -25.148438 4.015625 -26.945312 5.703125 -28.25 C 7.390625 -29.5625 10.066406 -30.21875 13.734375 -30.21875 C 15.929688 -30.21875 17.785156 -29.914062 19.296875 -29.3125 C 20.804688 -28.707031 22.015625 -27.910156 22.921875 -26.921875 C 23.835938 -25.929688 24.5 -24.832031 24.90625 -23.625 C 25.320312 -22.414062 25.53125 -21.203125 25.53125 -19.984375 L 22.0625 -19.984375 C 22.0625 -21.679688 21.6875 -23.0625 20.9375 -24.125 C 20.195312 -25.195312 19.191406 -25.988281 17.921875 -26.5 C 16.648438 -27.007812 15.253906 -27.265625 13.734375 -27.265625 C 12.378906 -27.265625 11.164062 -27.132812 10.09375 -26.875 C 9.03125 -26.625 8.1875 -26.179688 7.5625 -25.546875 C 6.945312 -24.910156 6.640625 -24.046875 6.640625 -22.953125 C 6.640625 -21.910156 6.925781 -21.054688 7.5 -20.390625 C 8.082031 -19.734375 8.925781 -19.15625 10.03125 -18.65625 C 11.144531 -18.164062 12.519531 -17.664062 14.15625 -17.15625 C 15.625 -16.707031 17.097656 -16.234375 18.578125 -15.734375 C 20.054688 -15.242188 21.414062 -14.660156 22.65625 -13.984375 C 23.894531 -13.304688 24.882812 -12.445312 25.625 -11.40625 C 26.375 -10.363281 26.75 -9.066406 26.75 -7.515625 Z M 26.75 -7.515625 "/></g></g></g></svg>